<?xml version="1.0" encoding="utf-8"?>
<!-- Generator: Adobe Illustrator 21.1.0, SVG Export Plug-In . SVG Version: 6.00 Build 0)  -->
<svg version="1.1" id="Layer_1" xmlns="http://www.w3.org/2000/svg" xmlns:xlink="http://www.w3.org/1999/xlink" x="0px" y="0px"
	 viewBox="0 0 71.7 72.8" style="enable-background:new 0 0 71.7 72.8;" xml:space="preserve">
<style type="text/css">
	
		.st0{fill-rule:evenodd;clip-rule:evenodd;fill:none;stroke:#D18B0A;stroke-width:2;stroke-linecap:round;stroke-linejoin:round;stroke-miterlimit:10;}
	.st1{fill:none;stroke:#D18B0A;stroke-width:2;stroke-linecap:round;stroke-linejoin:round;stroke-miterlimit:10;}
</style>
<path class="st0" d="M14.9,30.3v1.3c0,1.1-0.9,2-2,2H9c-1.1,0-2-0.9-2-2l0-1.3"/>
<path class="st0" d="M12.2,33.5v5.1c0,0.6,0,1.1,0.1,1.7l1,12.9c0.1,1.4-1,2.6-2.4,2.6l0,0c-1.4,0-2.5-1.2-2.4-2.6l1-12.9
	c0-0.6,0.1-1.1,0.1-1.7v-5.1"/>
<path class="st0" d="M14.9,17.8v13.8c0,1.1-0.9,2-2,2H9c-1.1,0-2-0.9-2-2l0-13.8"/>
<line class="st0" x1="10.9" y1="17.8" x2="10.9" y2="30.9"/>
<path class="st0" d="M62.3,55.8L62.3,55.8c-1.5,0-2.6-1.3-2.3-2.7c0.6-3,1.5-7.7,1.9-9.6c0.1-0.5,0.2-1.1,0.2-1.6v-0.4
	c0-1.3-0.7-2.4-1.9-3l-0.3-0.2c-1.1-0.5-1.7-1.6-1.7-2.8v-4.1c0-5.3,2.4-10.3,6.6-13.6l0,0c0,0,0,27.4,0,35.7
	C64.7,54.8,63.6,55.8,62.3,55.8z"/>
<circle class="st0" cx="36.5" cy="38.4" r="18.2"/>
<g>
	<circle class="st1" cx="36.5" cy="38.4" r="12.5"/>
</g>
</svg>
