<?xml version="1.0" encoding="utf-8"?>
<!-- Generator: Adobe Illustrator 21.1.0, SVG Export Plug-In . SVG Version: 6.00 Build 0)  -->
<svg version="1.1" id="Layer_1" xmlns="http://www.w3.org/2000/svg" xmlns:xlink="http://www.w3.org/1999/xlink" x="0px" y="0px"
	 viewBox="0 0 71.7 72.8" style="enable-background:new 0 0 71.7 72.8;" xml:space="preserve">
<style type="text/css">
	.st0{fill:none;stroke:#D18B0A;stroke-width:2;stroke-linecap:round;stroke-linejoin:round;stroke-miterlimit:10;}
</style>
<path class="st0" d="M65.1,44.1H6.6V26.7c0-4.7,3.8-8.5,8.5-8.5h41.6c4.7,0,8.5,3.8,8.5,8.5V44.1z"/>
<g>
	<g>
		<polyline class="st0" points="18.3,48.7 18.3,57.7 16,55.5 		"/>
		<line class="st0" x1="18.3" y1="57.7" x2="20.5" y2="55.5"/>
	</g>
	<g>
		<polyline class="st0" points="35.9,48.7 35.9,57.7 33.6,55.5 		"/>
		<line class="st0" x1="35.9" y1="57.7" x2="38.1" y2="55.5"/>
	</g>
	<g>
		<polyline class="st0" points="53.5,48.7 53.5,57.7 51.2,55.5 		"/>
		<line class="st0" x1="53.5" y1="57.7" x2="55.7" y2="55.5"/>
	</g>
</g>
<path class="st0" d="M59,39.9H12.7c-1,0-1.8-0.8-1.8-1.8v-0.1c0-1,0.8-1.8,1.8-1.8H59c1,0,1.8,0.8,1.8,1.8v0.1
	C60.8,39.1,60,39.9,59,39.9z"/>
<line class="st0" x1="50.6" y1="24.6" x2="58.6" y2="24.6"/>
</svg>
