<svg xmlns="http://www.w3.org/2000/svg" width="100" height="100" viewBox="0 0 100 100">
  <metadata><?xpacket begin="﻿" id="W5M0MpCehiHzreSzNTczkc9d"?>
<x:xmpmeta xmlns:x="adobe:ns:meta/" x:xmptk="Adobe XMP Core 5.6-c140 79.160451, 2017/05/06-01:08:21        ">
   <rdf:RDF xmlns:rdf="http://www.w3.org/1999/02/22-rdf-syntax-ns#">
      <rdf:Description rdf:about=""/>
   </rdf:RDF>
</x:xmpmeta>
                                                                                                    
                                                                                                    
                                                                                                    
                                                                                                    
                                                                                                    
                                                                                                    
                                                                                                    
                                                                                                    
                                                                                                    
                                                                                                    
                                                                                                    
                                                                                                    
                                                                                                    
                                                                                                    
                                                                                                    
                                                                                                    
                                                                                                    
                                                                                                    
                                                                                                    
                                                                                                    
                           
<?xpacket end="w"?></metadata>
<defs>
    <style>
      .cls-1 {
        fill: #a09f9f;
        fill-rule: evenodd;
      }
    </style>
  </defs>
  <path class="cls-1" d="M881.075,4473.31H819.444a3.769,3.769,0,0,0-3.762,3.78v38.55a3.776,3.776,0,0,0,3.762,3.78h9.4v13.23l13.166-13.23h39.061a3.776,3.776,0,0,0,3.762-3.78v-38.55A3.769,3.769,0,0,0,881.075,4473.31Zm-42.991,28.83A4.135,4.135,0,1,1,842.2,4498,4.125,4.125,0,0,1,838.084,4502.14Zm12.186,0a4.135,4.135,0,1,1,4.115-4.14A4.126,4.126,0,0,1,850.27,4502.14Zm12.165,0a4.135,4.135,0,1,1,4.116-4.14A4.126,4.126,0,0,1,862.435,4502.14Zm33.345-15h-8.474v30.76c0,2.09-.166,3.78-2.243,3.78H844.812v7.79a3.77,3.77,0,0,0,3.762,3.78h24.635l13.166,13.24v-13.24h9.4a3.769,3.769,0,0,0,3.761-3.78v-38.55A3.776,3.776,0,0,0,895.78,4487.14Z" transform="translate(-807.61 -4459.905)"/>
</svg>
