<svg xmlns="http://www.w3.org/2000/svg" width="100" height="100" viewBox="0 0 100 100">
  <metadata><?xpacket begin="﻿" id="W5M0MpCehiHzreSzNTczkc9d"?>
<x:xmpmeta xmlns:x="adobe:ns:meta/" x:xmptk="Adobe XMP Core 5.6-c140 79.160451, 2017/05/06-01:08:21        ">
   <rdf:RDF xmlns:rdf="http://www.w3.org/1999/02/22-rdf-syntax-ns#">
      <rdf:Description rdf:about=""/>
   </rdf:RDF>
</x:xmpmeta>
                                                                                                    
                                                                                                    
                                                                                                    
                                                                                                    
                                                                                                    
                                                                                                    
                                                                                                    
                                                                                                    
                                                                                                    
                                                                                                    
                                                                                                    
                                                                                                    
                                                                                                    
                                                                                                    
                                                                                                    
                                                                                                    
                                                                                                    
                                                                                                    
                                                                                                    
                                                                                                    
                           
<?xpacket end="w"?></metadata>
<defs>
    <style>
      .cls-1 {
        fill: #a09f9f;
        fill-rule: evenodd;
      }
    </style>
  </defs>
  <path class="cls-1" d="M177.319,4482.86h-21.5v-4.52a5.357,5.357,0,0,0-5.369-5.34H136.639a5.358,5.358,0,0,0-5.37,5.34v4.52h-21.5a5.242,5.242,0,0,0-5.256,5.23v14.57a184.34,184.34,0,0,0,31.022,3.39h16.017a184.352,184.352,0,0,0,31.022-3.39v-14.57A5.243,5.243,0,0,0,177.319,4482.86Zm-41.766-4.52a1.081,1.081,0,0,1,1.086-1.08h13.813a1.081,1.081,0,0,1,1.085,1.08v3.96H135.553v-3.96Zm17.408,36.43a4.551,4.551,0,0,1-4.561,4.54h-9.917a4.551,4.551,0,0,1-4.561-4.54v-5.46a192.651,192.651,0,0,1-29.407-3.28v26.63a5.242,5.242,0,0,0,5.256,5.23h67.548a5.243,5.243,0,0,0,5.257-5.23v-26.63a192.785,192.785,0,0,1-29.615,3.28v5.46ZM148.4,4516a1.23,1.23,0,0,0,1.229-1.23v-5.35c-2.029.06-4.061,0.08-6.084,0.08q-3.138,0-6.291-.08v5.35a1.23,1.23,0,0,0,1.229,1.23H148.4Z" transform="translate(-93.531 -4455.455)"/>
</svg>
