<svg xmlns="http://www.w3.org/2000/svg" width="100" height="100" viewBox="0 0 100 100">
  <metadata><?xpacket begin="﻿" id="W5M0MpCehiHzreSzNTczkc9d"?>
<x:xmpmeta xmlns:x="adobe:ns:meta/" x:xmptk="Adobe XMP Core 5.6-c138 79.159824, 2016/09/14-01:09:01        ">
   <rdf:RDF xmlns:rdf="http://www.w3.org/1999/02/22-rdf-syntax-ns#">
      <rdf:Description rdf:about=""/>
   </rdf:RDF>
</x:xmpmeta>
                                                                                                    
                                                                                                    
                                                                                                    
                                                                                                    
                                                                                                    
                                                                                                    
                                                                                                    
                                                                                                    
                                                                                                    
                                                                                                    
                                                                                                    
                                                                                                    
                                                                                                    
                                                                                                    
                                                                                                    
                                                                                                    
                                                                                                    
                                                                                                    
                                                                                                    
                                                                                                    
                           
<?xpacket end="w"?></metadata>
<defs>
    <style>
      .cls-1 {
        fill: #d18a00;
        fill-rule: evenodd;
      }
    </style>
  </defs>
  <path class="cls-1" d="M888.526,4470.73H832.5a3.43,3.43,0,0,0-3.419,3.44v35.04a3.43,3.43,0,0,0,3.419,3.44h8.55v12.03l11.969-12.03h35.51a3.43,3.43,0,0,0,3.419-3.44v-35.04A3.43,3.43,0,0,0,888.526,4470.73Zm-39.083,26.21a3.76,3.76,0,1,1,3.741-3.76A3.748,3.748,0,0,1,849.443,4496.94Zm11.078,0a3.76,3.76,0,1,1,3.741-3.76A3.749,3.749,0,0,1,860.521,4496.94Zm11.059,0a3.76,3.76,0,1,1,3.741-3.76A3.748,3.748,0,0,1,871.58,4496.94Zm30.313-13.63h-7.7v27.96c0,1.9-.151,3.44-2.039,3.44H855.56v7.08a3.43,3.43,0,0,0,3.419,3.44h22.4l11.969,12.03v-12.03h8.549a3.43,3.43,0,0,0,3.42-3.44v-35.04A3.43,3.43,0,0,0,901.893,4483.31Z" transform="translate(-817.187 -4453.985)"/>
</svg>
