<svg xmlns="http://www.w3.org/2000/svg" width="100" height="100" viewBox="0 0 100 100">
  <metadata><?xpacket begin="﻿" id="W5M0MpCehiHzreSzNTczkc9d"?>
<x:xmpmeta xmlns:x="adobe:ns:meta/" x:xmptk="Adobe XMP Core 5.6-c138 79.159824, 2016/09/14-01:09:01        ">
   <rdf:RDF xmlns:rdf="http://www.w3.org/1999/02/22-rdf-syntax-ns#">
      <rdf:Description rdf:about=""/>
   </rdf:RDF>
</x:xmpmeta>
                                                                                                    
                                                                                                    
                                                                                                    
                                                                                                    
                                                                                                    
                                                                                                    
                                                                                                    
                                                                                                    
                                                                                                    
                                                                                                    
                                                                                                    
                                                                                                    
                                                                                                    
                                                                                                    
                                                                                                    
                                                                                                    
                                                                                                    
                                                                                                    
                                                                                                    
                                                                                                    
                           
<?xpacket end="w"?></metadata>
<defs>
    <style>
      .cls-1 {
        fill: #d18a00;
        fill-rule: evenodd;
      }
    </style>
  </defs>
  <path class="cls-1" d="M387.535,4482.05h-41.27a3.1,3.1,0,0,0-3.086,3.1v45.16a3.1,3.1,0,0,0,3.086,3.11h41.27a3.1,3.1,0,0,0,3.086-3.11v-45.16A3.1,3.1,0,0,0,387.535,4482.05Zm-29.391,41.48h-6.753v-7.5h6.753v7.5Zm0-12.22h-6.753v-7.5h6.753v7.5Zm0-12.22h-6.753v-7.5h6.753v7.5Zm11.68,24.44h-6.753v-7.5h6.753v7.5Zm0-12.22h-6.753v-7.5h6.753v7.5Zm0-12.22h-6.753v-7.5h6.753v7.5Zm11.979,24.44h-6.752v-7.5H381.8v7.5Zm0-12.22h-6.752v-7.5H381.8v7.5Zm0-12.22h-6.752v-7.5H381.8v7.5Zm30.3-41.89H381.513a3.1,3.1,0,0,0-3.086,3.1v18.42h12.628a3.1,3.1,0,0,1,3.086,3.11v51.86H412.1a3.1,3.1,0,0,0,3.086-3.1V4460.3A3.1,3.1,0,0,0,412.1,4457.2Zm-18.072,16.82H387.28v-7.5h6.752v7.5Zm11.931,48.61H399.21v-7.5h6.753v7.5Zm0-12.22H399.21v-7.5h6.753v7.5Zm0-12.22H399.21v-7.5h6.753v7.5Zm0-11.95H399.21v-7.51h6.753v7.51Zm0-12.22H399.21v-7.5h6.753v7.5Z" transform="translate(-329.188 -4445.44)"/>
</svg>
