<svg xmlns="http://www.w3.org/2000/svg" width="100" height="100" viewBox="0 0 100 100">
  <metadata><?xpacket begin="﻿" id="W5M0MpCehiHzreSzNTczkc9d"?>
<x:xmpmeta xmlns:x="adobe:ns:meta/" x:xmptk="Adobe XMP Core 5.6-c138 79.159824, 2016/09/14-01:09:01        ">
   <rdf:RDF xmlns:rdf="http://www.w3.org/1999/02/22-rdf-syntax-ns#">
      <rdf:Description rdf:about=""/>
   </rdf:RDF>
</x:xmpmeta>
                                                                                                    
                                                                                                    
                                                                                                    
                                                                                                    
                                                                                                    
                                                                                                    
                                                                                                    
                                                                                                    
                                                                                                    
                                                                                                    
                                                                                                    
                                                                                                    
                                                                                                    
                                                                                                    
                                                                                                    
                                                                                                    
                                                                                                    
                                                                                                    
                                                                                                    
                                                                                                    
                           
<?xpacket end="w"?></metadata>
<defs>
    <style>
      .cls-1 {
        fill: #d18a00;
        fill-rule: evenodd;
      }
    </style>
  </defs>
  <path class="cls-1" d="M1119.13,4516.39c-0.07-.07-0.14-0.13-0.21-0.19l-7.96-6.32a4.524,4.524,0,0,0-6.28.12,2.6,2.6,0,0,0-.3.36l-2.14,3.24c-1.12-.26-4.36-1.95-10.25-7.85s-7.58-9.15-7.83-10.27l3.22-2.15a2.174,2.174,0,0,0,.37-0.31,4.534,4.534,0,0,0,.11-6.28l-6.31-7.98a1.68,1.68,0,0,0-.18-0.21,5.024,5.024,0,0,0-3.09-1.42,4.426,4.426,0,0,0-3.44,1.14l-6.42,5.61a1.2,1.2,0,0,0-.12.11c-3.1,3.1-.63,10.57.57,13.64a56.759,56.759,0,0,0,12.52,18.74,56.182,56.182,0,0,0,18.7,12.54,27.2,27.2,0,0,0,9.04,2.08,6.273,6.273,0,0,0,4.57-1.51,0.679,0.679,0,0,0,.12-0.12l5.58-6.43A4.76,4.76,0,0,0,1119.13,4516.39Zm-0.75-63.7a24.282,24.282,0,0,0-18.91,39.45l-0.01-.01-1.42,9.21,8.4-3.25A24.26,24.26,0,1,0,1118.38,4452.69Zm-9.79,28.43a2.8,2.8,0,1,1,2.79-2.8A2.793,2.793,0,0,1,1108.59,4481.12Zm10.81,0a2.8,2.8,0,1,1,2.79-2.8A2.8,2.8,0,0,1,1119.4,4481.12Zm10.86,0a2.8,2.8,0,1,1,2.79-2.8A2.793,2.793,0,0,1,1130.26,4481.12Z" transform="translate(-1054.685 -4441.845)"/>
</svg>
