<svg xmlns="http://www.w3.org/2000/svg" width="100" height="100" viewBox="0 0 100 100">
  <metadata><?xpacket begin="﻿" id="W5M0MpCehiHzreSzNTczkc9d"?>
<x:xmpmeta xmlns:x="adobe:ns:meta/" x:xmptk="Adobe XMP Core 5.6-c138 79.159824, 2016/09/14-01:09:01        ">
   <rdf:RDF xmlns:rdf="http://www.w3.org/1999/02/22-rdf-syntax-ns#">
      <rdf:Description rdf:about=""/>
   </rdf:RDF>
</x:xmpmeta>
                                                                                                    
                                                                                                    
                                                                                                    
                                                                                                    
                                                                                                    
                                                                                                    
                                                                                                    
                                                                                                    
                                                                                                    
                                                                                                    
                                                                                                    
                                                                                                    
                                                                                                    
                                                                                                    
                                                                                                    
                                                                                                    
                                                                                                    
                                                                                                    
                                                                                                    
                                                                                                    
                           
<?xpacket end="w"?></metadata>
<defs>
    <style>
      .cls-1 {
        fill: #d18a00;
        fill-rule: evenodd;
      }
    </style>
  </defs>
  <path class="cls-1" d="M169.657,4479.41H150.113v-4.1a4.876,4.876,0,0,0-4.881-4.86H132.674a4.876,4.876,0,0,0-4.881,4.86v4.1H108.25a4.768,4.768,0,0,0-4.779,4.76v13.25a169.12,169.12,0,0,0,28.2,3.08h14.561a169.132,169.132,0,0,0,28.2-3.08v-13.25A4.769,4.769,0,0,0,169.657,4479.41Zm-37.969-4.1a0.986,0.986,0,0,1,.986-0.99h12.558a0.986,0.986,0,0,1,.986.99v3.6h-14.53v-3.6Zm15.825,33.12a4.139,4.139,0,0,1-4.146,4.12h-9.016a4.139,4.139,0,0,1-4.146-4.12v-4.97a176.317,176.317,0,0,1-26.734-2.98v24.21a4.768,4.768,0,0,0,4.779,4.76h61.407a4.769,4.769,0,0,0,4.779-4.76v-24.21a176.152,176.152,0,0,1-26.923,2.99v4.96Zm-4.146,1.11a1.116,1.116,0,0,0,1.117-1.11v-4.87c-1.845.05-3.692,0.08-5.531,0.08-1.9,0-3.811-.03-5.719-0.08v4.87a1.116,1.116,0,0,0,1.117,1.11h9.016Z" transform="translate(-88.953 -4449.94)"/>
</svg>
