<svg xmlns="http://www.w3.org/2000/svg" width="100" height="100" viewBox="0 0 100 100">
  <metadata><?xpacket begin="﻿" id="W5M0MpCehiHzreSzNTczkc9d"?>
<x:xmpmeta xmlns:x="adobe:ns:meta/" x:xmptk="Adobe XMP Core 5.6-c140 79.160451, 2017/05/06-01:08:21        ">
   <rdf:RDF xmlns:rdf="http://www.w3.org/1999/02/22-rdf-syntax-ns#">
      <rdf:Description rdf:about=""/>
   </rdf:RDF>
</x:xmpmeta>
                                                                                                    
                                                                                                    
                                                                                                    
                                                                                                    
                                                                                                    
                                                                                                    
                                                                                                    
                                                                                                    
                                                                                                    
                                                                                                    
                                                                                                    
                                                                                                    
                                                                                                    
                                                                                                    
                                                                                                    
                                                                                                    
                                                                                                    
                                                                                                    
                                                                                                    
                                                                                                    
                           
<?xpacket end="w"?></metadata>
<defs>
    <style>
      .cls-1 {
        fill: #a09f9f;
        fill-rule: evenodd;
      }
    </style>
  </defs>
  <path class="cls-1" d="M385.985,4485.75h-45.4a3.407,3.407,0,0,0-3.395,3.42v49.67a3.407,3.407,0,0,0,3.395,3.42h45.4a3.407,3.407,0,0,0,3.395-3.42v-49.67A3.407,3.407,0,0,0,385.985,4485.75Zm-32.33,45.64h-7.428v-8.26h7.428v8.26Zm0-13.44h-7.428v-8.26h7.428v8.26Zm0-13.44h-7.428v-8.26h7.428v8.26Zm12.848,26.88h-7.428v-8.26H366.5v8.26Zm0-13.44h-7.428v-8.26H366.5v8.26Zm0-13.44h-7.428v-8.26H366.5v8.26Zm13.178,26.88h-7.428v-8.26h7.428v8.26Zm0-13.44h-7.428v-8.26h7.428v8.26Zm0-13.44h-7.428v-8.26h7.428v8.26Zm33.33-46.09H379.362a3.407,3.407,0,0,0-3.4,3.42v20.26h13.89a3.407,3.407,0,0,1,3.395,3.42v57.05h19.759a3.407,3.407,0,0,0,3.395-3.42v-77.31A3.407,3.407,0,0,0,413.011,4458.42Zm-19.879,18.5h-7.427v-8.25h7.427v8.25Zm13.124,53.48h-7.428v-8.26h7.428v8.26Zm0-13.44h-7.428v-8.26h7.428v8.26Zm0-13.44h-7.428v-8.26h7.428v8.26Zm0-13.16h-7.428v-8.25h7.428v8.25Zm0-13.44h-7.428v-8.25h7.428v8.25Z" transform="translate(-326.797 -4450.485)"/>
</svg>
