<svg xmlns="http://www.w3.org/2000/svg" width="62.75" height="62.75" viewBox="0 0 62.75 62.75">
  <metadata><?xpacket begin="﻿" id="W5M0MpCehiHzreSzNTczkc9d"?>
<x:xmpmeta xmlns:x="adobe:ns:meta/" x:xmptk="Adobe XMP Core 5.6-c138 79.159824, 2016/09/14-01:09:01        ">
   <rdf:RDF xmlns:rdf="http://www.w3.org/1999/02/22-rdf-syntax-ns#">
      <rdf:Description rdf:about=""/>
   </rdf:RDF>
</x:xmpmeta>
                                                                                                    
                                                                                                    
                                                                                                    
                                                                                                    
                                                                                                    
                                                                                                    
                                                                                                    
                                                                                                    
                                                                                                    
                                                                                                    
                                                                                                    
                                                                                                    
                                                                                                    
                                                                                                    
                                                                                                    
                                                                                                    
                                                                                                    
                                                                                                    
                                                                                                    
                                                                                                    
                           
<?xpacket end="w"?></metadata>
<defs>
    <style>
      .cls-1 {
        fill: #fff;
        fill-rule: evenodd;
      }
    </style>
  </defs>
  <path id="icon" class="cls-1" d="M621.194,4529.87h10.457a3.485,3.485,0,1,0,0-6.97H617.708a3.485,3.485,0,0,0-3.487,3.48v17.43H600.277v-22.96l24.4-24.4,24.4,24.4v22.96H631.651a3.485,3.485,0,1,0,0,6.97h20.916a3.484,3.484,0,0,0,3.486-3.48v-27.89a3.516,3.516,0,0,0-1.021-2.47l-27.888-27.88a3.487,3.487,0,0,0-4.929,0l-27.888,27.88a3.516,3.516,0,0,0-1.021,2.47v27.89a3.484,3.484,0,0,0,3.485,3.48h20.917a3.484,3.484,0,0,0,3.486-3.48v-17.43Z" transform="translate(-593.312 -4488.03)"/>
</svg>
