<svg xmlns="http://www.w3.org/2000/svg" width="100" height="100" viewBox="0 0 100 100">
  <metadata><?xpacket begin="﻿" id="W5M0MpCehiHzreSzNTczkc9d"?>
<x:xmpmeta xmlns:x="adobe:ns:meta/" x:xmptk="Adobe XMP Core 5.6-c140 79.160451, 2017/05/06-01:08:21        ">
   <rdf:RDF xmlns:rdf="http://www.w3.org/1999/02/22-rdf-syntax-ns#">
      <rdf:Description rdf:about=""/>
   </rdf:RDF>
</x:xmpmeta>
                                                                                                    
                                                                                                    
                                                                                                    
                                                                                                    
                                                                                                    
                                                                                                    
                                                                                                    
                                                                                                    
                                                                                                    
                                                                                                    
                                                                                                    
                                                                                                    
                                                                                                    
                                                                                                    
                                                                                                    
                                                                                                    
                                                                                                    
                                                                                                    
                                                                                                    
                                                                                                    
                           
<?xpacket end="w"?></metadata>
<defs>
    <style>
      .cls-1 {
        fill: #a09f9f;
        fill-rule: evenodd;
      }
    </style>
  </defs>
  <path class="cls-1" d="M1115.74,4524.53a2.2,2.2,0,0,0-.23-0.2l-8.76-6.96a4.974,4.974,0,0,0-6.9.13,3.189,3.189,0,0,0-.33.4l-2.36,3.56c-1.23-.29-4.8-2.14-11.28-8.63s-8.33-10.07-8.61-11.3l3.55-2.37a3.189,3.189,0,0,0,.4-0.33,4.987,4.987,0,0,0,.13-6.91l-6.94-8.78c-0.07-.08-0.13-0.16-0.2-0.23a5.546,5.546,0,0,0-3.41-1.56,4.854,4.854,0,0,0-3.78,1.25l-7.06,6.17c-0.04.04-.09,0.08-0.13,0.12-3.41,3.42-.7,11.63.63,15a63.773,63.773,0,0,0,34.34,34.42,30.113,30.113,0,0,0,9.94,2.28,6.966,6.966,0,0,0,5.03-1.65c0.04-.05.08-0.09,0.12-0.14l6.15-7.08A5.23,5.23,0,0,0,1115.74,4524.53Zm-0.83-70.07a26.709,26.709,0,0,0-20.8,43.39h-0.01l-1.55,10.12,9.24-3.57A26.684,26.684,0,1,0,1114.91,4454.46Zm-10.77,31.28a3.08,3.08,0,1,1,3.07-3.08A3.079,3.079,0,0,1,1104.14,4485.74Zm11.89,0a3.08,3.08,0,1,1,3.07-3.08A3.079,3.079,0,0,1,1116.03,4485.74Zm11.95,0a3.08,3.08,0,1,1,3.07-3.08A3.079,3.079,0,0,1,1127.98,4485.74Z" transform="translate(-1049.875 -4447.53)"/>
</svg>
