<?xml version="1.0" encoding="utf-8"?>
<!-- Generator: Adobe Illustrator 21.1.0, SVG Export Plug-In . SVG Version: 6.00 Build 0)  -->
<svg version="1.1" id="Layer_1" xmlns="http://www.w3.org/2000/svg" xmlns:xlink="http://www.w3.org/1999/xlink" x="0px" y="0px"
	 viewBox="0 0 124 61" style="enable-background:new 0 0 124 61;" xml:space="preserve">
<style type="text/css">
	.st0{fill:#2E2A25;}
</style>
<g id="XMLID_290_">
	<path id="XMLID_308_" class="st0" d="M8.9,31.6h14.2v3.6H8.9v9.2h15.3V48H1.8v-2.4l1.5-0.3c0.5-0.1,0.9-0.2,1.1-0.3
		c0.2-0.1,0.3-0.4,0.3-0.7V22.6c0-0.3-0.1-0.5-0.2-0.6c-0.1-0.1-0.3-0.2-0.7-0.3l-1.7-0.2V19h21.5v3.6H8.9V31.6z"/>
	<path id="XMLID_306_" class="st0" d="M34.6,45.7V48h-8.6v-2.3l1.6-0.2c0.3-0.1,0.4-0.1,0.5-0.2c0.1-0.1,0.1-0.3,0.1-0.6V21.9
		c0-0.3,0-0.5-0.1-0.6c-0.1-0.1-0.2-0.2-0.5-0.3l-1.6-0.2v-2.3h6.4v26.2c0,0.3,0,0.4,0.1,0.6c0.1,0.1,0.2,0.2,0.5,0.2L34.6,45.7z"/>
	<path id="XMLID_304_" class="st0" d="M34.8,29.8v-2.3h8.6v2.3l-1.6,0.2c-0.3,0.1-0.4,0.1-0.5,0.2c-0.1,0.1-0.1,0.3-0.1,0.6v10.2
		c0,1.4,0.4,2.4,1.2,2.9c0.8,0.5,2.1,0.8,3.9,0.8c0.7,0,1.5,0,2.4-0.1c0.9-0.1,1.8-0.2,2.7-0.4V30.9c0-0.3,0-0.4-0.1-0.6
		c-0.1-0.1-0.2-0.2-0.5-0.2l-1.6-0.2v-2.4h8.6v2.3L56.2,30c-0.3,0.1-0.4,0.1-0.5,0.2c-0.1,0.1-0.1,0.3-0.1,0.6v17.2
		c0,1.4-0.2,2.7-0.6,3.8c-0.4,1.1-1,2-1.8,2.8c-0.8,0.8-1.9,1.3-3.2,1.7c-1.3,0.4-2.9,0.6-4.8,0.6c-0.9,0-1.8,0-2.5-0.1
		c-0.8-0.1-1.4-0.2-2-0.3c-0.7-0.1-1.3-0.3-1.9-0.4l0.3-3.1c0.5,0.1,1.1,0.2,1.8,0.3c0.6,0.1,1.2,0.2,1.9,0.2
		c0.7,0.1,1.5,0.1,2.4,0.1c1.3,0,2.3-0.1,3.1-0.4c0.8-0.2,1.4-0.6,1.9-1.1c0.5-0.5,0.8-1,0.9-1.7c0.2-0.7,0.2-1.4,0.2-2.3v-0.6
		c-0.9,0.2-1.8,0.3-2.7,0.4c-0.9,0.1-1.8,0.1-2.7,0.1c-1.2,0-2.4-0.1-3.4-0.3c-1.1-0.2-2-0.6-2.9-1.1c-0.8-0.5-1.5-1.2-2-2.1
		c-0.5-0.9-0.7-2-0.7-3.3V30.8c0-0.3,0-0.4-0.1-0.6c-0.1-0.1-0.2-0.2-0.5-0.2L34.8,29.8z"/>
	<path id="XMLID_293_" class="st0" d="M63.5,43.5c0.5,0.6,1.2,1,2.1,1.1c0.9,0.2,1.8,0.3,2.9,0.3c0.8,0,1.6,0,2.5-0.1
		c0.9-0.1,1.7-0.2,2.5-0.3c0.9-0.1,1.8-0.2,2.7-0.4l0.4,3.3c-0.9,0.2-1.8,0.4-2.7,0.5c-0.8,0.1-1.6,0.2-2.6,0.3
		c-0.9,0.1-1.8,0.1-2.6,0.1c-1.8,0-3.4-0.2-4.6-0.5c-1.3-0.3-2.4-0.9-3.4-1.8c-0.8-0.8-1.5-1.8-1.9-3.1c-0.5-1.3-0.7-3-0.7-5.1
		c0-1.2,0.1-2.3,0.3-3.4c0.2-1.1,0.5-2,0.9-2.8c0.6-1.4,1.7-2.5,3.1-3.2c1.4-0.7,3.2-1.1,5.3-1.1c2,0,3.7,0.3,5.2,0.9
		c1.5,0.6,2.6,1.6,3.4,3.1c0.5,0.9,0.8,1.9,1,2.9c0.1,1,0.2,2,0.3,3c0,0.4,0,0.8,0,1.2c0,0.4,0,0.8,0,1.2H62.2
		c0.1,0.7,0.2,1.4,0.3,2.1C62.7,42.3,63,42.9,63.5,43.5z M73.3,36.1c-0.1-2-0.5-3.4-1.4-4.2c-0.9-0.8-2.3-1.2-4.2-1.2
		c-1.8,0-3.1,0.4-3.9,1.2c-0.8,0.8-1.3,2.2-1.5,4.2H73.3z"/>
	<path id="XMLID_291_" class="st0" d="M97.3,41.9c0,1.4-0.2,2.5-0.7,3.3c-0.5,0.8-1.2,1.4-2.1,1.9c-0.9,0.5-1.9,0.8-3.1,1
		c-1.2,0.1-2.6,0.2-4.3,0.2c-1.1,0-2.2,0-3.2-0.1c-1-0.1-1.8-0.2-2.6-0.3c-0.9-0.1-1.7-0.3-2.4-0.4l0.4-3.4c0.7,0.1,1.4,0.3,2.3,0.4
		c0.7,0.1,1.5,0.2,2.5,0.2c0.9,0.1,2,0.1,3.1,0.1c1,0,1.9,0,2.5,0c0.6,0,1.3-0.2,1.9-0.4c0.6-0.2,1-0.5,1.2-0.8
		c0.2-0.4,0.3-0.9,0.3-1.8c0-0.7-0.2-1.2-0.5-1.5c-0.4-0.3-0.8-0.5-1.2-0.7c-0.4-0.1-0.9-0.2-1.5-0.3c-0.6,0-1.3-0.1-2.1-0.2
		c-0.4,0-0.8-0.1-1.1-0.1c-0.3,0-0.6,0-0.9,0c-0.3,0-0.6,0-0.9,0c-0.3,0-0.7-0.1-1.1-0.1c-0.8-0.1-1.5-0.2-2.1-0.4
		c-0.6-0.2-1.2-0.5-1.7-1c-0.5-0.4-0.8-1-1.1-1.7c-0.3-0.7-0.4-1.6-0.4-2.6c0-2.1,0.8-3.6,2.5-4.6c0.9-0.5,1.8-0.9,2.9-1.1
		c1-0.2,2.5-0.3,4.2-0.3c0.9,0,1.9,0,2.8,0.1c0.9,0.1,1.8,0.2,2.6,0.3c0.9,0.1,1.7,0.2,2.5,0.4l-0.3,3.3c-0.8-0.1-1.7-0.2-2.5-0.3
		c-0.7-0.1-1.5-0.1-2.4-0.2c-0.8-0.1-1.6-0.1-2.4-0.1c-0.6,0-1.1,0-1.4,0c-0.3,0-0.6,0-1.1,0.1c-1.2,0.1-2.1,0.3-2.5,0.7
		c-0.5,0.4-0.7,1-0.7,1.8c0,0.9,0.2,1.6,0.7,1.9c0.4,0.3,1.2,0.5,2.3,0.6l3.1,0.2c0.9,0.1,1.7,0.1,2.4,0.2c0.7,0.1,1.4,0.2,2.2,0.4
		c1.1,0.3,2.1,0.9,2.9,1.6C97,39.1,97.3,40.2,97.3,41.9z"/>
</g>
<g id="XMLID_353_">
	<path id="XMLID_352_" class="st0" d="M113.6,49.3c-0.6,0-1.1-0.4-1.3-1c-5.6-20.1-24-34.1-44.9-34.1c-11.2,0-22,4-30.5,11.3
		c-0.6,0.5-1.4,0.4-1.9-0.1c-0.5-0.6-0.4-1.4,0.1-1.9c8.9-7.7,20.4-12,32.2-12c22.1,0,41.6,14.8,47.5,36.1c0.2,0.7-0.2,1.4-0.9,1.6
		C113.8,49.3,113.7,49.3,113.6,49.3z"/>
</g>
</svg>
