<svg id="Layer_1" data-name="Layer 1" xmlns="http://www.w3.org/2000/svg" viewBox="0 0 124 61"><defs><style>.cls-1{fill:#fff;}</style></defs><title>Artboard 1</title><g id="_Group_" data-name="&lt;Group&gt;"><path id="_Compound_Path_" data-name="&lt;Compound Path&gt;" class="cls-1" d="M21.64,31.2h10.9V34H21.64v7H33.39v2.78H16.26V41.93l1.12-.2a2.36,2.36,0,0,0,.81-.25.61.61,0,0,0,.24-.56V24.33a.66.66,0,0,0-.14-.47,1,1,0,0,0-.51-.2l-1.29-.17v-2H32.95v2.78H21.64Z"/><path id="_Compound_Path_2" data-name="&lt;Compound Path&gt;" class="cls-1" d="M41.31,42v1.76h-6.6V42l1.22-.17a.74.74,0,0,0,.39-.17.76.76,0,0,0,.08-.44V23.79a.87.87,0,0,0-.08-.44.6.6,0,0,0-.39-.2L34.71,23V21.18h4.91v20a.76.76,0,0,0,.08.42.65.65,0,0,0,.39.19Z"/><path id="_Compound_Path_3" data-name="&lt;Compound Path&gt;" class="cls-1" d="M41.48,29.81V28.05h6.6v1.79L46.86,30a.74.74,0,0,0-.39.17.76.76,0,0,0-.08.44v7.82a2.45,2.45,0,0,0,.95,2.23,5.73,5.73,0,0,0,3,.61q.81,0,1.83-.08a17.93,17.93,0,0,0,2-.29V30.62a.77.77,0,0,0-.08-.42.66.66,0,0,0-.39-.19l-1.22-.14V28.05h6.6v1.76L57.9,30a.66.66,0,0,0-.39.19.85.85,0,0,0-.08.46V43.79A9.26,9.26,0,0,1,57,46.72a5.08,5.08,0,0,1-1.37,2.15,6.18,6.18,0,0,1-2.45,1.34,12.8,12.8,0,0,1-3.67.46q-1,0-1.93-.08T46,50.36q-.78-.14-1.42-.3l.24-2.4q.61.13,1.35.24t1.47.17q.83.07,1.81.07a8.75,8.75,0,0,0,2.39-.27A3.25,3.25,0,0,0,53.31,47a2.79,2.79,0,0,0,.71-1.3A7.4,7.4,0,0,0,54.21,44v-.47a20.55,20.55,0,0,1-2.08.3q-1.07.1-2,.1a13.26,13.26,0,0,1-2.64-.25,6.57,6.57,0,0,1-2.2-.85,4.3,4.3,0,0,1-1.51-1.61,5.21,5.21,0,0,1-.56-2.54V30.59a.77.77,0,0,0-.08-.42A.66.66,0,0,0,42.7,30Z"/><path id="_Compound_Path_4" data-name="&lt;Compound Path&gt;" class="cls-1" d="M63.45,40.27a2.83,2.83,0,0,0,1.58.88,11,11,0,0,0,2.23.2q.88,0,1.92-.08t1.92-.22q1-.13,2-.3l.3,2.54a20.58,20.58,0,0,1-2.07.37q-.88.14-2,.24t-2,.1a15.14,15.14,0,0,1-3.54-.36,5.64,5.64,0,0,1-2.57-1.41,5.76,5.76,0,0,1-1.47-2.4,12.3,12.3,0,0,1-.52-3.93,13.35,13.35,0,0,1,.25-2.62,9.73,9.73,0,0,1,.66-2.15,5,5,0,0,1,2.39-2.44,9.07,9.07,0,0,1,4-.81,10.76,10.76,0,0,1,4,.68,5,5,0,0,1,2.62,2.34A6.57,6.57,0,0,1,74,33.08q.15,1.1.22,2.32c0,.32,0,.63,0,.95v.95H62.5a12.78,12.78,0,0,0,.24,1.57A3,3,0,0,0,63.45,40.27ZM71,34.65a4.34,4.34,0,0,0-1.1-3.22,4.82,4.82,0,0,0-3.25-.91,4.14,4.14,0,0,0-3,.93,4.94,4.94,0,0,0-1.11,3.2Z"/><path id="_Compound_Path_5" data-name="&lt;Compound Path&gt;" class="cls-1" d="M89.38,39.05a5.13,5.13,0,0,1-.52,2.54,3.9,3.9,0,0,1-1.61,1.49,6.33,6.33,0,0,1-2.35.74,27,27,0,0,1-3.3.17q-1.29,0-2.42-.08t-2-.22q-1-.13-1.83-.34l.27-2.57q.78.17,1.73.3t1.9.19q1.08.08,2.37.08t1.93,0A4.64,4.64,0,0,0,85,41a1.7,1.7,0,0,0,.9-.64A2.68,2.68,0,0,0,86.17,39a1.43,1.43,0,0,0-.41-1.13,2.61,2.61,0,0,0-.95-.52,4.55,4.55,0,0,0-1.18-.22L82,37,81.14,37l-.69,0-.69,0q-.36,0-.83-.08a8.57,8.57,0,0,1-1.62-.34A3.32,3.32,0,0,1,76,35.74a3.27,3.27,0,0,1-.83-1.3,5.86,5.86,0,0,1-.29-2,3.79,3.79,0,0,1,1.9-3.52A6.93,6.93,0,0,1,79,28.12a17.49,17.49,0,0,1,3.23-.24q1.08,0,2.17.1l2,.2,1.93.27L88,31q-.95-.1-1.93-.24l-1.81-.15q-1-.08-1.85-.08l-1,0-.81.05a3.21,3.21,0,0,0-1.95.54,1.77,1.77,0,0,0-.52,1.39A1.66,1.66,0,0,0,78.62,34a3.83,3.83,0,0,0,1.79.46l2.4.17,1.83.14a8.07,8.07,0,0,1,1.69.34,4.83,4.83,0,0,1,2.18,1.25A3.79,3.79,0,0,1,89.38,39.05Z"/></g><g id="_Group_2" data-name="&lt;Group&gt;"><path id="_Compound_Path_6" data-name="&lt;Compound Path&gt;" class="cls-1" d="M66.26,9.41a.13.13,0,0,0-.1.07s0,.09,0,.17l1,1.6,1-1.61a.28.28,0,0,0,0-.16s0-.08-.1-.08l-.15,0V9h1.33v.38l-.21,0a.24.24,0,0,0-.14.08,1,1,0,0,0-.1.15l-1.35,2.18v.86a.23.23,0,0,0,0,.1.11.11,0,0,0,.08.06l.32.08v.34H66.52v-.34l.28-.07a.18.18,0,0,0,.1,0,.16.16,0,0,0,0-.11v-.86L65.49,9.59a.33.33,0,0,0-.18-.15l-.23,0V9h1.33v.36Z"/><path id="_Compound_Path_7" data-name="&lt;Compound Path&gt;" class="cls-1" d="M72.32,12a3.08,3.08,0,0,1-.12.69,1.05,1.05,0,0,1-.28.46,1,1,0,0,1-.48.24,2.53,2.53,0,0,1-.75,0,2.59,2.59,0,0,1-.73-.15,1,1,0,0,1-.44-.31,1,1,0,0,1-.2-.5,3.59,3.59,0,0,1,.11-1.39,1,1,0,0,1,.28-.45,1,1,0,0,1,.48-.24,2.66,2.66,0,0,1,.75,0,2.62,2.62,0,0,1,.73.15,1,1,0,0,1,.44.31,1,1,0,0,1,.2.49A3.1,3.1,0,0,1,72.32,12Zm-.61,0a4.18,4.18,0,0,0,0-.43.72.72,0,0,0-.08-.33.55.55,0,0,0-.25-.23,1.45,1.45,0,0,0-.49-.11,1.4,1.4,0,0,0-.51,0,.56.56,0,0,0-.28.18.72.72,0,0,0-.13.31c0,.13,0,.27-.05.43a4.23,4.23,0,0,0,0,.43.72.72,0,0,0,.08.34.54.54,0,0,0,.25.23,1.41,1.41,0,0,0,.5.11,1.46,1.46,0,0,0,.51,0,.53.53,0,0,0,.29-.18.74.74,0,0,0,.13-.32A4.23,4.23,0,0,0,71.71,12Z"/><path id="_Compound_Path_8" data-name="&lt;Compound Path&gt;" class="cls-1" d="M72.93,10.92l.06-.33,1.24.22-.06.34h-.23l-.08,0a.14.14,0,0,0,0,.08l-.25,1.47a.47.47,0,0,0,.11.45,1.09,1.09,0,0,0,.55.21,1,1,0,0,0,.4,0,2.11,2.11,0,0,0,.37-.12l.3-1.75a.15.15,0,0,0,0-.09l-.07,0L75,11.29l.06-.34,1.24.22-.06.33H76l-.08,0a.15.15,0,0,0,0,.08l-.34,2a.16.16,0,0,0,0,.09.13.13,0,0,0,.07.05l.22.07-.06.33L75,14l0-.2a1.87,1.87,0,0,1-.4.1,1.47,1.47,0,0,1-.43,0,2.54,2.54,0,0,1-.49-.13,1.28,1.28,0,0,1-.39-.23.83.83,0,0,1-.23-.35,1,1,0,0,1,0-.5l.26-1.52a.15.15,0,0,0,0-.08.12.12,0,0,0-.07,0Z"/><path id="_Compound_Path_9" data-name="&lt;Compound Path&gt;" class="cls-1" d="M76.95,11.33l.9.23-.07.25.14-.05.13,0,.15,0h.19l.27,0,.19,0,.22.06.18.07-.15.48-.14,0-.12,0-.11,0-.16,0-.15,0a1.26,1.26,0,0,0-.27,0l-.25,0-.25.07L77.22,14a.14.14,0,0,0,0,.08s0,0,.06.05l.22.09-.08.32-1.22-.32.09-.33.23,0h.08a.14.14,0,0,0,0-.08l.51-1.94a.21.21,0,0,0,0-.08s0,0-.06-.06l-.22-.09Z"/><path id="_Compound_Path_10" data-name="&lt;Compound Path&gt;" class="cls-1" d="M81.35,15.09a.53.53,0,0,0,.22.27,2.07,2.07,0,0,0,.38.19l.35.12.36.09.38.09-.12.47-.39-.08-.37-.09L81.79,16a2.9,2.9,0,0,1-.61-.31,1.08,1.08,0,0,1-.36-.43,1.1,1.1,0,0,1-.09-.53,2.36,2.36,0,0,1,.18-.74,2.57,2.57,0,0,1,.23-.45,1.9,1.9,0,0,1,.27-.34A1,1,0,0,1,82,13a1.73,1.73,0,0,1,.78.14,2.06,2.06,0,0,1,.66.4,1,1,0,0,1,.3.6,1.26,1.26,0,0,1,0,.44c0,.14-.07.28-.12.43l-.06.17-.07.17-2.08-.82a2.46,2.46,0,0,0-.07.3A.58.58,0,0,0,81.35,15.09Zm1.73-.47a.83.83,0,0,0,0-.65.92.92,0,0,0-.51-.39.79.79,0,0,0-.6,0,1,1,0,0,0-.42.49Z"/><path id="_Compound_Path_11" data-name="&lt;Compound Path&gt;" class="cls-1" d="M85.15,17.5l.15-.29.16,0h.07a.05.05,0,0,0,0,0,.16.16,0,0,0,0-.09l-.15-1,0,0-.89.48a.17.17,0,0,0-.07.06.06.06,0,0,0,0,.06l0,0,.14.1-.15.29-1.16-.58.15-.3.22.08h.1l.1,0L85,15.72l-.18-1.19a.4.4,0,0,0,0-.11.19.19,0,0,0-.06-.08l-.21-.15.15-.3,1.17.58-.15.31-.16-.06a.07.07,0,0,0-.08,0,.1.1,0,0,0,0,.11l.15,1,0,0,.85-.46a.12.12,0,0,0,.07-.09.08.08,0,0,0,0-.07l-.15-.1.15-.3,1.17.58-.15.3-.21-.07a.22.22,0,0,0-.12,0l-.1,0L86,16.22l.19,1.24a.27.27,0,0,0,0,.1.25.25,0,0,0,.06.07l.19.14-.15.29Z"/><path id="_Compound_Path_12" data-name="&lt;Compound Path&gt;" class="cls-1" d="M89.41,16.41l.33.23.27.22.24.22-.29.38-.22-.2-.24-.19-.29-.2a2.93,2.93,0,0,0-.43-.22.58.58,0,0,0-.34,0,.64.64,0,0,0-.31.18,2.27,2.27,0,0,0-.32.43,2.32,2.32,0,0,0-.24.49.63.63,0,0,0,0,.36.59.59,0,0,0,.19.29,2.64,2.64,0,0,0,.39.28l.31.17.28.13L89,19l-.2.44-.3-.11-.32-.14L87.81,19a3.09,3.09,0,0,1-.51-.38,1.13,1.13,0,0,1-.3-.45,1.09,1.09,0,0,1,0-.57,2.26,2.26,0,0,1,.31-.72,2.37,2.37,0,0,1,.48-.59,1.07,1.07,0,0,1,.5-.25,1.11,1.11,0,0,1,.54,0A3,3,0,0,1,89.41,16.41Z"/><path id="_Compound_Path_13" data-name="&lt;Compound Path&gt;" class="cls-1" d="M90.09,19.69a.54.54,0,0,0,.15.31,2.11,2.11,0,0,0,.32.28l.31.2.32.18.35.18-.24.43-.36-.17-.33-.18-.32-.21a2.91,2.91,0,0,1-.51-.45,1.08,1.08,0,0,1-.24-.51,1.1,1.1,0,0,1,0-.54,2.34,2.34,0,0,1,.36-.67,2.52,2.52,0,0,1,.33-.38,1.9,1.9,0,0,1,.34-.26,1,1,0,0,1,.64-.11,1.71,1.71,0,0,1,.72.33,2.07,2.07,0,0,1,.54.55,1,1,0,0,1,.14.66,1.25,1.25,0,0,1-.13.42c-.07.12-.14.25-.23.38l-.1.15-.11.15-1.82-1.31a2.65,2.65,0,0,0-.14.27A.58.58,0,0,0,90.09,19.69Zm1.79,0a.83.83,0,0,0,.19-.62.91.91,0,0,0-.4-.5.79.79,0,0,0-.57-.19.94.94,0,0,0-.53.37Z"/><path id="_Compound_Path_14" data-name="&lt;Compound Path&gt;" class="cls-1" d="M92.83,22.22l-.21.26-1-.8.22-.27.2.12.08,0a.15.15,0,0,0,.07-.06l2.11-2.57a.16.16,0,0,0,0-.07.11.11,0,0,0,0-.08l-.16-.17.22-.26.72.6-2.43,3a.14.14,0,0,0,0,.07.12.12,0,0,0,0,.07Z"/><path id="_Compound_Path_15" data-name="&lt;Compound Path&gt;" class="cls-1" d="M94.23,23.46l-.23.25-.94-.85.23-.25.19.13.08,0,.07-.05,2.23-2.47a.17.17,0,0,0,0-.07.11.11,0,0,0,0-.08l-.15-.18.23-.25.7.63-2.57,2.84a.14.14,0,0,0,0,.07.12.12,0,0,0,0,.08Z"/><path id="_Compound_Path_16" data-name="&lt;Compound Path&gt;" class="cls-1" d="M95.3,24a.54.54,0,0,0,.09.33,2,2,0,0,0,.27.33l.27.25.29.23.31.24-.31.38-.33-.23-.29-.23-.28-.26a2.91,2.91,0,0,1-.43-.53,1.08,1.08,0,0,1-.15-.54,1.11,1.11,0,0,1,.13-.52,2.36,2.36,0,0,1,.47-.6,2.53,2.53,0,0,1,.39-.32,1.88,1.88,0,0,1,.38-.2,1,1,0,0,1,.65,0,1.74,1.74,0,0,1,.65.44,2,2,0,0,1,.44.63,1,1,0,0,1,0,.67,1.27,1.27,0,0,1-.2.39l-.29.34-.12.13-.13.13-1.57-1.6a2.48,2.48,0,0,0-.18.24A.58.58,0,0,0,95.3,24Zm1.77.28a.82.82,0,0,0,.29-.58.92.92,0,0,0-.31-.57.79.79,0,0,0-.53-.29,1,1,0,0,0-.59.28Z"/><path id="_Compound_Path_17" data-name="&lt;Compound Path&gt;" class="cls-1" d="M97.57,27l-.26.21-.8-1,.27-.22.17.16.07,0,.08,0,1.56-1.27a.15.15,0,0,0,.05-.07.14.14,0,0,0,0-.08l-.12-.2.26-.22.59.73-.16.13a2,2,0,0,1,.39.2,1.46,1.46,0,0,1,.34.3,2.74,2.74,0,0,1,.28.42,1.17,1.17,0,0,1,.14.43.85.85,0,0,1-.06.42,1,1,0,0,1-.31.39l-1.2,1a.14.14,0,0,0-.05.06.12.12,0,0,0,0,.08l.12.2-.26.21-.8-1,.27-.22.17.16.07,0,.08,0,1.16-.95a.47.47,0,0,0,.22-.41,1.11,1.11,0,0,0-.27-.52,1.08,1.08,0,0,0-.34-.28,1.93,1.93,0,0,0-.4-.15l-1.35,1.11a.15.15,0,0,0-.05.06.13.13,0,0,0,0,.08Z"/><path id="_Compound_Path_18" data-name="&lt;Compound Path&gt;" class="cls-1" d="M100.7,27.53l.39-.27.3.42.76-.54.35.5-.76.54.5.71-.5.12-.39-.55-1.3.91-.15.12a.23.23,0,0,0-.07.12.23.23,0,0,0,0,.13.84.84,0,0,0,.1.17L100,30l.09.11.11.13-.38.3-.13-.14-.12-.15-.11-.14L99.38,30a.86.86,0,0,1-.16-.35.59.59,0,0,1,0-.29.64.64,0,0,1,.13-.22,1,1,0,0,1,.17-.16L101,28Z"/><path id="_Compound_Path_19" data-name="&lt;Compound Path&gt;" class="cls-1" d="M103,34.25a1,1,0,0,1-.47.15.76.76,0,0,1-.4-.13,1.21,1.21,0,0,1-.34-.33,5.26,5.26,0,0,1-.33-.54c-.08-.14-.15-.28-.21-.41s-.11-.25-.14-.35-.08-.23-.11-.34l.46-.19c0,.1.06.2.11.32l.14.34c.06.13.12.26.2.4l.18.32a.92.92,0,0,0,.18.22.33.33,0,0,0,.19.09.52.52,0,0,0,.25-.08.28.28,0,0,0,.15-.17.5.5,0,0,0,0-.21.87.87,0,0,0-.07-.22l-.13-.28-.07-.15-.06-.12-.06-.12-.06-.15a1.63,1.63,0,0,1-.09-.3.65.65,0,0,1,0-.28.61.61,0,0,1,.14-.26,1.09,1.09,0,0,1,.31-.23.73.73,0,0,1,.76,0,1.35,1.35,0,0,1,.34.29,3.47,3.47,0,0,1,.34.52c.07.12.13.25.18.37l.15.35.13.35-.45.19-.14-.34-.14-.32c0-.11-.1-.22-.15-.32l-.1-.17-.08-.13a.62.62,0,0,0-.27-.28.34.34,0,0,0-.28,0c-.12.07-.19.14-.19.22a.73.73,0,0,0,.09.34l.19.42.15.32a1.51,1.51,0,0,1,.1.32.93.93,0,0,1,0,.48A.72.72,0,0,1,103,34.25Z"/><path id="_Compound_Path_20" data-name="&lt;Compound Path&gt;" class="cls-1" d="M104.52,33.78l.43-.2.22.47.84-.39.26.56-.85.39.37.79-.52,0-.28-.61-1.44.67-.17.09a.23.23,0,0,0-.09.1.23.23,0,0,0,0,.13.84.84,0,0,0,.07.19l0,.1.07.13.08.15-.43.23-.1-.17-.09-.17-.09-.16-.06-.12a.86.86,0,0,1-.09-.37.61.61,0,0,1,.07-.28.64.64,0,0,1,.17-.2,1.1,1.1,0,0,1,.2-.12l1.61-.75Z"/><path id="_Compound_Path_21" data-name="&lt;Compound Path&gt;" class="cls-1" d="M104.14,36.61a1,1,0,0,1,.76,0,1.18,1.18,0,0,1,.53.7l.38,1,.14-.05.2-.09a.22.22,0,0,0,.1-.13.72.72,0,0,0,0-.34,2.83,2.83,0,0,0-.11-.37A2.61,2.61,0,0,0,106,37l-.16-.3-.19-.31.45-.23.2.32.18.31a3,3,0,0,1,.15.34l.1.28a2.91,2.91,0,0,1,.08.29,2.39,2.39,0,0,1,0,.29,1.16,1.16,0,0,1,0,.26.55.55,0,0,1-.16.31,1.18,1.18,0,0,1-.41.23l-1.51.57a.16.16,0,0,0-.08.05.12.12,0,0,0,0,.09l0,.22-.31.12-.3-.8.14-.12a2,2,0,0,1-.33-.42,3,3,0,0,1-.25-.52,1.21,1.21,0,0,1-.07-.88A1,1,0,0,1,104.14,36.61Zm1.21,1.86-.29-.76a2.62,2.62,0,0,0-.14-.32.6.6,0,0,0-.15-.19.27.27,0,0,0-.18-.06.68.68,0,0,0-.24.05.64.64,0,0,0-.21.12.29.29,0,0,0-.09.16.53.53,0,0,0,0,.22,2.34,2.34,0,0,0,.09.29,1.43,1.43,0,0,0,.14.27l.18.24.21.24Z"/><path id="_Compound_Path_22" data-name="&lt;Compound Path&gt;" class="cls-1" d="M107,39.38l.32-.09.33,1.22-.33.09-.09-.22a.14.14,0,0,0-.05-.06h-.09l-1.44.4a.47.47,0,0,0-.36.29,1.09,1.09,0,0,0,0,.59c0,.1.06.21.11.33a3.27,3.27,0,0,0,.16.36l1.9-.52.07,0a.12.12,0,0,0,0-.08l0-.23.34-.09.34,1.22-.32.09-.09-.22a.13.13,0,0,0-.05-.06h-.09l-2.43.67a1.78,1.78,0,0,1-.56.07,1,1,0,0,1-.47-.14,1.19,1.19,0,0,1-.37-.38,2.45,2.45,0,0,1-.27-.65c0-.13-.06-.25-.08-.36s0-.21,0-.3a2.69,2.69,0,0,1,0-.28l.45-.08c0,.08,0,.17,0,.26s0,.18,0,.28,0,.22.08.34a1.66,1.66,0,0,0,.17.43.63.63,0,0,0,.22.23.54.54,0,0,0,.28.07,1.42,1.42,0,0,0,.33-.05l.09,0c-.06-.12-.11-.24-.16-.37s-.09-.25-.12-.37a2.56,2.56,0,0,1-.09-.5,1.26,1.26,0,0,1,0-.45.81.81,0,0,1,.22-.36,1,1,0,0,1,.44-.23l1.49-.41.07,0a.12.12,0,0,0,0-.08Z"/></g><g id="_Group_3" data-name="&lt;Group&gt;"><path id="_Path_" data-name="&lt;Path&gt;" class="cls-1" d="M101.82,44.77a1,1,0,0,1-1-.74A35.69,35.69,0,0,0,43.12,26.59a1,1,0,1,1-1.32-1.53,37.72,37.72,0,0,1,61,18.43,1,1,0,0,1-1,1.28Z"/></g></svg>