<svg id="Layer_1" data-name="Layer 1" xmlns="http://www.w3.org/2000/svg" viewBox="0 0 124 61"><defs><style>.cls-1{fill:#2e2a25;}</style></defs><title>Artboard 1</title><g id="_Group_" data-name="&lt;Group&gt;"><path id="_Compound_Path_" data-name="&lt;Compound Path&gt;" class="cls-1" d="M23.19,32.06H34.1v2.78H23.19v7H34.95v2.78H17.8V42.8l1.12-.2a2.36,2.36,0,0,0,.81-.25.61.61,0,0,0,.24-.56V25.18a.66.66,0,0,0-.14-.47,1,1,0,0,0-.51-.2L18,24.33v-2H34.51v2.78H23.19Z"/><path id="_Compound_Path_2" data-name="&lt;Compound Path&gt;" class="cls-1" d="M42.88,42.87v1.76H36.27v-1.8l1.22-.17a.74.74,0,0,0,.39-.17.76.76,0,0,0,.08-.44V24.64a.87.87,0,0,0-.08-.44.6.6,0,0,0-.39-.2l-1.22-.17V22h4.91V42.09a.76.76,0,0,0,.08.42.65.65,0,0,0,.39.19Z"/><path id="_Compound_Path_3" data-name="&lt;Compound Path&gt;" class="cls-1" d="M43,30.67V28.91h6.61v1.8l-1.22.17A.74.74,0,0,0,48,31a.76.76,0,0,0-.08.44v7.83a2.45,2.45,0,0,0,.95,2.24,5.74,5.74,0,0,0,3,.61q.81,0,1.83-.08a17.94,17.94,0,0,0,2-.29V31.48a.77.77,0,0,0-.08-.42.66.66,0,0,0-.39-.19l-1.22-.14V28.91H60.7v1.76l-1.22.17a.66.66,0,0,0-.39.19.85.85,0,0,0-.08.46V44.66a9.27,9.27,0,0,1-.42,2.93,5.08,5.08,0,0,1-1.37,2.15,6.19,6.19,0,0,1-2.46,1.34,12.81,12.81,0,0,1-3.68.46q-1.05,0-1.93-.08t-1.56-.22q-.78-.14-1.42-.31l.24-2.41q.61.14,1.36.24t1.47.17Q50.06,49,51,49a8.76,8.76,0,0,0,2.39-.27,3.25,3.25,0,0,0,1.46-.81,2.79,2.79,0,0,0,.71-1.3,7.4,7.4,0,0,0,.19-1.75v-.47a20.57,20.57,0,0,1-2.08.3q-1.07.1-2.05.1A13.28,13.28,0,0,1,49,44.54a6.58,6.58,0,0,1-2.2-.85,4.3,4.3,0,0,1-1.51-1.61,5.22,5.22,0,0,1-.56-2.54v-8.1a.78.78,0,0,0-.08-.42.66.66,0,0,0-.39-.19Z"/><path id="_Compound_Path_4" data-name="&lt;Compound Path&gt;" class="cls-1" d="M65,41.14a2.84,2.84,0,0,0,1.59.88,11,11,0,0,0,2.23.2q.88,0,1.92-.08t1.92-.22q1-.13,2-.3L75,44.16a20.6,20.6,0,0,1-2.07.37q-.88.14-2,.24t-2,.1a15.15,15.15,0,0,1-3.55-.36,5.65,5.65,0,0,1-2.57-1.41,5.77,5.77,0,0,1-1.47-2.41,12.31,12.31,0,0,1-.52-3.93,13.36,13.36,0,0,1,.25-2.63A9.74,9.74,0,0,1,61.79,32a5,5,0,0,1,2.39-2.44,9.08,9.08,0,0,1,4-.81,10.77,10.77,0,0,1,4,.68,5.05,5.05,0,0,1,2.63,2.34,6.57,6.57,0,0,1,.73,2.19q.15,1.1.22,2.32c0,.32,0,.63,0,.95v.95H64.09a12.79,12.79,0,0,0,.24,1.58A3,3,0,0,0,65,41.14Zm7.53-5.63a4.34,4.34,0,0,0-1.1-3.22,4.82,4.82,0,0,0-3.26-.91,4.15,4.15,0,0,0-3,.93,5,5,0,0,0-1.11,3.2Z"/><path id="_Compound_Path_5" data-name="&lt;Compound Path&gt;" class="cls-1" d="M91,39.92a5.14,5.14,0,0,1-.53,2.54A3.9,3.9,0,0,1,88.86,44a6.33,6.33,0,0,1-2.36.75,27,27,0,0,1-3.3.17q-1.29,0-2.42-.08t-2-.22q-1-.14-1.83-.34l.27-2.58Q78,41.82,79,42t1.9.19q1.08.08,2.37.08t1.93,0a4.64,4.64,0,0,0,1.46-.31,1.7,1.7,0,0,0,.9-.64,2.68,2.68,0,0,0,.25-1.36,1.43,1.43,0,0,0-.41-1.14,2.61,2.61,0,0,0-.95-.53A4.55,4.55,0,0,0,85.24,38l-1.63-.12-.86-.05-.69,0-.69,0q-.36,0-.83-.08a8.58,8.58,0,0,1-1.63-.34,3.32,3.32,0,0,1-1.29-.75,3.27,3.27,0,0,1-.83-1.3,5.87,5.87,0,0,1-.29-2,3.79,3.79,0,0,1,1.9-3.52A6.94,6.94,0,0,1,80.58,29a17.5,17.5,0,0,1,3.24-.24q1.08,0,2.17.1l2,.2,1.93.27-.24,2.54q-.95-.1-1.93-.24l-1.81-.15q-1-.08-1.85-.08L83,31.4l-.81.05a3.21,3.21,0,0,0-1.95.54,1.78,1.78,0,0,0-.53,1.39,1.66,1.66,0,0,0,.51,1.44,3.83,3.83,0,0,0,1.8.46l2.41.17,1.83.14a8.08,8.08,0,0,1,1.69.34,4.83,4.83,0,0,1,2.19,1.25A3.79,3.79,0,0,1,91,39.92Z"/></g><path id="_Compound_Path_6" data-name="&lt;Compound Path&gt;" class="cls-1" d="M67.85,10.25a.13.13,0,0,0-.1.07s0,.09,0,.17l1,1.6,1-1.61a.28.28,0,0,0,0-.16s0-.08-.1-.08l-.16,0V9.85h1.33v.38l-.21,0a.24.24,0,0,0-.14.08,1,1,0,0,0-.1.15l-1.35,2.18v.86a.23.23,0,0,0,0,.1.11.11,0,0,0,.08.06l.32.08v.34H68.11v-.34l.28-.07a.18.18,0,0,0,.1,0,.16.16,0,0,0,0-.11v-.86l-1.43-2.25a.33.33,0,0,0-.18-.15l-.23,0V9.87H68v.36Z"/><path id="_Compound_Path_7" data-name="&lt;Compound Path&gt;" class="cls-1" d="M73.92,12.86a3.08,3.08,0,0,1-.12.69,1.05,1.05,0,0,1-.28.46,1,1,0,0,1-.48.24,2.53,2.53,0,0,1-.75,0,2.6,2.6,0,0,1-.74-.15,1,1,0,0,1-.44-.31,1,1,0,0,1-.2-.5A3.6,3.6,0,0,1,71,11.92a1,1,0,0,1,.28-.46,1,1,0,0,1,.48-.24,2.66,2.66,0,0,1,.75,0,2.62,2.62,0,0,1,.74.15,1,1,0,0,1,.44.31,1,1,0,0,1,.2.49A3.1,3.1,0,0,1,73.92,12.86Zm-.61,0a4.19,4.19,0,0,0,0-.43.72.72,0,0,0-.08-.33.56.56,0,0,0-.25-.23,1.45,1.45,0,0,0-.49-.11,1.4,1.4,0,0,0-.51,0,.56.56,0,0,0-.28.18.72.72,0,0,0-.13.31c0,.13,0,.27-.05.43a4.24,4.24,0,0,0,0,.43.72.72,0,0,0,.08.34.54.54,0,0,0,.25.23,1.42,1.42,0,0,0,.5.11,1.46,1.46,0,0,0,.51,0,.54.54,0,0,0,.29-.18.75.75,0,0,0,.13-.32A4.23,4.23,0,0,0,73.3,12.81Z"/><path id="_Compound_Path_8" data-name="&lt;Compound Path&gt;" class="cls-1" d="M74.53,11.76l.06-.33,1.24.22-.06.34h-.24l-.08,0a.14.14,0,0,0,0,.08l-.25,1.47a.47.47,0,0,0,.11.45,1.09,1.09,0,0,0,.55.21,1,1,0,0,0,.4,0,2.12,2.12,0,0,0,.37-.12l.3-1.76a.15.15,0,0,0,0-.09l-.07,0-.22-.07.06-.34,1.24.22-.06.33h-.24l-.08,0a.15.15,0,0,0,0,.08l-.34,2a.16.16,0,0,0,0,.09.13.13,0,0,0,.07.05l.22.07L77.4,15l-.84-.15,0-.2a1.87,1.87,0,0,1-.4.1,1.47,1.47,0,0,1-.43,0,2.54,2.54,0,0,1-.49-.13,1.28,1.28,0,0,1-.39-.23.84.84,0,0,1-.23-.35,1,1,0,0,1,0-.5L74.83,12a.15.15,0,0,0,0-.08.12.12,0,0,0-.07,0Z"/><path id="_Compound_Path_9" data-name="&lt;Compound Path&gt;" class="cls-1" d="M78.55,12.16l.9.24-.07.25.14-.05.13,0,.15,0H80l.27,0,.19,0,.22.06.18.07-.15.48-.14,0-.12,0-.11,0-.16,0L80,13a1.26,1.26,0,0,0-.27,0l-.25,0-.25.07-.44,1.7a.14.14,0,0,0,0,.08s0,0,.06.05l.22.09-.08.33-1.22-.32.09-.33.23,0h.08a.14.14,0,0,0,0-.08l.51-1.94a.21.21,0,0,0,0-.08s0,0-.06-.06l-.22-.09Z"/><path id="_Compound_Path_10" data-name="&lt;Compound Path&gt;" class="cls-1" d="M83,15.93a.53.53,0,0,0,.22.27,2.07,2.07,0,0,0,.38.19l.35.12.36.09.38.09-.12.47-.39-.08L83.76,17l-.37-.12a2.9,2.9,0,0,1-.61-.31,1.08,1.08,0,0,1-.36-.43,1.1,1.1,0,0,1-.09-.53,2.37,2.37,0,0,1,.18-.74,2.57,2.57,0,0,1,.23-.45,1.91,1.91,0,0,1,.27-.34,1,1,0,0,1,.6-.27,1.73,1.73,0,0,1,.78.14,2.06,2.06,0,0,1,.66.4,1,1,0,0,1,.3.6,1.26,1.26,0,0,1,0,.44c0,.14-.07.28-.12.43l-.06.17-.07.17L83,15.33a2.46,2.46,0,0,0-.07.3A.58.58,0,0,0,83,15.93Zm1.73-.47a.83.83,0,0,0,0-.65.92.92,0,0,0-.52-.39.79.79,0,0,0-.6,0,1,1,0,0,0-.42.49Z"/><path id="_Compound_Path_11" data-name="&lt;Compound Path&gt;" class="cls-1" d="M86.76,18.34l.15-.3.16,0h.07a.05.05,0,0,0,0,0,.16.16,0,0,0,0-.09L87,17l0,0-.89.48a.17.17,0,0,0-.07.06.06.06,0,0,0,0,.06l0,0,.14.1-.15.3-1.17-.58.15-.3.22.08h.1l.1,0,1.11-.59-.18-1.19a.4.4,0,0,0,0-.11.19.19,0,0,0-.06-.08L86.11,15l.15-.3,1.17.58-.15.31-.16-.06a.07.07,0,0,0-.08,0,.1.1,0,0,0,0,.11l.15,1,0,0L88,16.2a.12.12,0,0,0,.07-.09.08.08,0,0,0,0-.07l-.15-.1.15-.3,1.17.58-.15.3-.21-.07a.22.22,0,0,0-.12,0l-.1,0-1.06.57.19,1.24a.27.27,0,0,0,0,.1.25.25,0,0,0,.06.07l.19.14-.15.3Z"/><path id="_Compound_Path_12" data-name="&lt;Compound Path&gt;" class="cls-1" d="M91,17.26l.33.23.27.22.24.22-.29.38-.22-.2-.24-.19-.29-.2a2.93,2.93,0,0,0-.43-.22.58.58,0,0,0-.34,0,.64.64,0,0,0-.31.18,2.27,2.27,0,0,0-.33.44,2.32,2.32,0,0,0-.24.49.63.63,0,0,0,0,.36.59.59,0,0,0,.19.29,2.65,2.65,0,0,0,.39.28l.31.17.28.13.28.11-.2.44-.3-.11-.32-.14-.35-.19a3.09,3.09,0,0,1-.52-.38,1.13,1.13,0,0,1-.3-.46,1.09,1.09,0,0,1,0-.57,2.26,2.26,0,0,1,.31-.72,2.37,2.37,0,0,1,.48-.59,1.07,1.07,0,0,1,.5-.25,1.11,1.11,0,0,1,.54,0A3,3,0,0,1,91,17.26Z"/><path id="_Compound_Path_13" data-name="&lt;Compound Path&gt;" class="cls-1" d="M91.71,20.54a.54.54,0,0,0,.15.31,2.11,2.11,0,0,0,.32.28l.31.2.32.18.35.18-.24.43-.36-.17-.33-.18-.33-.21a2.91,2.91,0,0,1-.51-.45,1.08,1.08,0,0,1-.24-.51,1.1,1.1,0,0,1,0-.54,2.34,2.34,0,0,1,.36-.67,2.52,2.52,0,0,1,.33-.38,1.91,1.91,0,0,1,.34-.26,1,1,0,0,1,.64-.11,1.71,1.71,0,0,1,.72.33,2.08,2.08,0,0,1,.54.55,1,1,0,0,1,.14.66,1.25,1.25,0,0,1-.13.42c-.07.13-.14.25-.23.38l-.1.15-.11.15L91.9,20a2.65,2.65,0,0,0-.14.27A.58.58,0,0,0,91.71,20.54Zm1.8,0a.83.83,0,0,0,.19-.62.92.92,0,0,0-.4-.5.79.79,0,0,0-.57-.19.94.94,0,0,0-.53.37Z"/><path id="_Compound_Path_14" data-name="&lt;Compound Path&gt;" class="cls-1" d="M94.45,23.06l-.21.26-1-.8.22-.27.2.12.08,0a.15.15,0,0,0,.07-.06l2.11-2.57a.16.16,0,0,0,0-.07.11.11,0,0,0,0-.08l-.16-.17.22-.27.73.6-2.43,3a.14.14,0,0,0,0,.07.12.12,0,0,0,0,.07Z"/><path id="_Compound_Path_15" data-name="&lt;Compound Path&gt;" class="cls-1" d="M95.85,24.31l-.23.25-.94-.85.23-.25.19.13.08,0,.07-.05,2.23-2.47a.17.17,0,0,0,0-.07.11.11,0,0,0,0-.08l-.15-.18.23-.25.7.63L95.71,24a.14.14,0,0,0,0,.07.12.12,0,0,0,0,.08Z"/><path id="_Compound_Path_16" data-name="&lt;Compound Path&gt;" class="cls-1" d="M96.92,24.88a.55.55,0,0,0,.09.33,2,2,0,0,0,.27.33l.27.25.29.23.31.24-.31.38-.33-.23-.29-.24-.28-.26a2.91,2.91,0,0,1-.43-.53,1.08,1.08,0,0,1-.15-.54,1.11,1.11,0,0,1,.13-.52,2.36,2.36,0,0,1,.47-.6,2.53,2.53,0,0,1,.39-.32,1.89,1.89,0,0,1,.38-.2,1,1,0,0,1,.65,0,1.74,1.74,0,0,1,.65.44,2.05,2.05,0,0,1,.44.63,1,1,0,0,1,0,.67,1.27,1.27,0,0,1-.2.39l-.29.34-.13.13-.13.13-1.57-1.6a2.48,2.48,0,0,0-.18.24A.58.58,0,0,0,96.92,24.88Zm1.78.28a.83.83,0,0,0,.29-.58.92.92,0,0,0-.31-.57.79.79,0,0,0-.53-.29,1,1,0,0,0-.59.28Z"/><path id="_Compound_Path_17" data-name="&lt;Compound Path&gt;" class="cls-1" d="M99.19,27.84l-.26.21-.8-1,.27-.22.17.16.07,0,.08,0,1.56-1.28a.15.15,0,0,0,.05-.07.14.14,0,0,0,0-.08l-.12-.2.27-.22.59.73-.16.13a2,2,0,0,1,.39.2,1.46,1.46,0,0,1,.34.3,2.75,2.75,0,0,1,.28.42,1.17,1.17,0,0,1,.14.43.85.85,0,0,1-.06.42,1,1,0,0,1-.31.39l-1.2,1a.14.14,0,0,0-.05.06.12.12,0,0,0,0,.08l.12.2-.26.21-.8-1,.27-.22.17.16.07,0,.08,0,1.16-.95a.47.47,0,0,0,.22-.41,1.11,1.11,0,0,0-.27-.52,1.08,1.08,0,0,0-.34-.28,1.94,1.94,0,0,0-.4-.15L99.1,27.5a.15.15,0,0,0-.05.06.13.13,0,0,0,0,.08Z"/><path id="_Compound_Path_18" data-name="&lt;Compound Path&gt;" class="cls-1" d="M102.33,28.38l.39-.27.3.42.76-.54.35.5-.76.54.5.71-.5.12-.39-.55-1.3.91-.15.12a.23.23,0,0,0-.07.12.23.23,0,0,0,0,.13.84.84,0,0,0,.1.17l.06.09.09.11.11.13-.38.3-.13-.14-.13-.15-.11-.14-.08-.11a.86.86,0,0,1-.16-.35.59.59,0,0,1,0-.29A.64.64,0,0,1,101,30a1,1,0,0,1,.17-.16l1.46-1Z"/><path id="_Compound_Path_19" data-name="&lt;Compound Path&gt;" class="cls-1" d="M104.66,35.11a1,1,0,0,1-.47.15.76.76,0,0,1-.4-.13,1.21,1.21,0,0,1-.34-.33,5.27,5.27,0,0,1-.33-.54c-.08-.14-.15-.28-.21-.41s-.11-.25-.14-.35-.08-.23-.11-.34l.46-.19c0,.1.06.2.11.32l.14.34c.06.13.12.26.2.41l.18.32a.92.92,0,0,0,.18.22.33.33,0,0,0,.19.09.52.52,0,0,0,.25-.08.28.28,0,0,0,.15-.17.5.5,0,0,0,0-.21.87.87,0,0,0-.07-.22l-.13-.28-.07-.15-.06-.12-.06-.12-.06-.15a1.63,1.63,0,0,1-.09-.3.65.65,0,0,1,0-.28.61.61,0,0,1,.14-.26,1.1,1.1,0,0,1,.31-.23.73.73,0,0,1,.77,0,1.35,1.35,0,0,1,.34.29,3.47,3.47,0,0,1,.34.52c.07.12.13.25.18.37l.15.35.13.35-.45.19-.14-.35-.14-.32c0-.11-.1-.22-.16-.32l-.1-.17-.08-.13a.62.62,0,0,0-.27-.28.34.34,0,0,0-.28,0c-.12.07-.19.14-.19.22a.73.73,0,0,0,.09.34l.19.42.15.32a1.51,1.51,0,0,1,.1.32.93.93,0,0,1,0,.48A.72.72,0,0,1,104.66,35.11Z"/><path id="_Compound_Path_20" data-name="&lt;Compound Path&gt;" class="cls-1" d="M106.15,34.64l.44-.2.22.47.85-.39.26.56-.85.39.37.79-.52,0-.28-.61-1.44.67-.17.09a.23.23,0,0,0-.09.1.23.23,0,0,0,0,.13.84.84,0,0,0,.07.19l0,.1.07.13.08.15-.43.23-.1-.17-.09-.17-.09-.16-.06-.12a.86.86,0,0,1-.09-.37.61.61,0,0,1,.07-.28.64.64,0,0,1,.17-.2,1.1,1.1,0,0,1,.2-.13l1.62-.75Z"/><path id="_Compound_Path_21" data-name="&lt;Compound Path&gt;" class="cls-1" d="M105.77,37.47a1,1,0,0,1,.76,0,1.18,1.18,0,0,1,.53.7l.38,1,.14-.05.2-.09a.22.22,0,0,0,.1-.13.72.72,0,0,0,0-.34,2.83,2.83,0,0,0-.11-.37,2.61,2.61,0,0,0-.14-.31l-.16-.3-.19-.31.45-.23.2.32.18.31a3,3,0,0,1,.15.34l.1.28a2.91,2.91,0,0,1,.08.29,2.39,2.39,0,0,1,0,.29,1.17,1.17,0,0,1,0,.26.55.55,0,0,1-.16.31,1.18,1.18,0,0,1-.41.23l-1.51.57a.16.16,0,0,0-.08.05.12.12,0,0,0,0,.09l0,.22-.31.12-.3-.8.14-.12a2,2,0,0,1-.33-.42,3.05,3.05,0,0,1-.25-.52,1.21,1.21,0,0,1-.07-.88A1,1,0,0,1,105.77,37.47ZM107,39.33l-.29-.76a2.62,2.62,0,0,0-.14-.32.6.6,0,0,0-.15-.19.27.27,0,0,0-.18-.06A.68.68,0,0,0,106,38a.64.64,0,0,0-.21.12.29.29,0,0,0-.09.16.53.53,0,0,0,0,.22,2.34,2.34,0,0,0,.09.29,1.43,1.43,0,0,0,.14.27l.18.24.21.24Z"/><path id="_Compound_Path_22" data-name="&lt;Compound Path&gt;" class="cls-1" d="M108.68,40.25l.32-.09.33,1.22-.33.09-.09-.22a.14.14,0,0,0-.05-.06h-.09l-1.44.4a.47.47,0,0,0-.36.29,1.09,1.09,0,0,0,0,.59c0,.1.06.21.11.33a3.27,3.27,0,0,0,.16.36l1.9-.52.07,0a.12.12,0,0,0,0-.08l0-.23.34-.09.34,1.22-.33.09-.09-.22a.13.13,0,0,0-.05-.06h-.09l-2.43.67a1.78,1.78,0,0,1-.56.07,1,1,0,0,1-.47-.14,1.19,1.19,0,0,1-.37-.38,2.45,2.45,0,0,1-.27-.65c0-.13-.06-.25-.08-.36s0-.21,0-.3a2.7,2.7,0,0,1,0-.28l.46-.08c0,.08,0,.17,0,.26s0,.18,0,.28,0,.22.08.34a1.66,1.66,0,0,0,.17.43.63.63,0,0,0,.22.23.54.54,0,0,0,.28.07,1.42,1.42,0,0,0,.33-.05l.09,0c-.06-.12-.11-.24-.16-.37s-.09-.25-.12-.37a2.56,2.56,0,0,1-.09-.5,1.26,1.26,0,0,1,0-.45.82.82,0,0,1,.22-.36,1,1,0,0,1,.44-.23l1.49-.41.07,0a.12.12,0,0,0,0-.08Z"/><g id="_Group_2" data-name="&lt;Group&gt;"><path id="_Path_" data-name="&lt;Path&gt;" class="cls-1" d="M103.44,45.64a1,1,0,0,1-1-.74A35.73,35.73,0,0,0,44.69,27.44a1,1,0,1,1-1.32-1.53,37.75,37.75,0,0,1,61.06,18.45,1,1,0,0,1-1,1.28Z"/></g></svg>